# xmcd
#
# Track frame offsets:
#	150
#	15208
#	33723
#	50138
#	70500
#	91769
#	102972
#	119228
#	136013
#	152001
#	169238
#	184830
#
# Disc length: 2691 seconds
#
# Revision: 0
# Processed by: cddbd v1.5.2PL0 Copyright (c) Steve Scherf et al.
# Submitted via: FairStars CD Ripper 1.90
#
DISCID=9a0a810c
DTITLE=Ledfoot -  Damned If I Don't
DYEAR=2010
DGENRE=Gothis Blues
TTITLE0=I don't want this worry anymore 
TTITLE1=Hanging tree 
TTITLE2=Purgatory road 	
TTITLE3=Crazy or insane 
TTITLE4=Wicked state of mind 
TTITLE5=Beast of my own invention 
TTITLE6=Damned 
TTITLE7=A good man
TTITLE8=Another new day 
TTITLE9=Nevermore 
TTITLE10=My angel whore
TTITLE11=As I Am (solo version)
EXTD=
EXTT0=
EXTT1=
EXTT2=
EXTT3=
EXTT4=
EXTT5=
EXTT6=
EXTT7=
EXTT8=
EXTT9=
EXTT10=
EXTT11=
PLAYORDER=
